# xmcd
#
# Track frame offsets: 
#        150
#        11388
#        24902
#        35495
#        47374
#        60823
#        72350
#        85350
#        97627
#        111685
#        124226
#        138232
#        150508
#        165949
#        175251
#        187761
#        196994
#        209237
#        217901
#        227682
#        241460
#        253435
#        267159
#        276852
#
# Disc length: 3799 seconds
#
# Revision: 3
# Processed by: cddbd v1.5.2PL0 Copyright (c) Steve Scherf et al.
# Submitted via: ExactAudioCopyFreeDBPlugin 1.0
#
DISCID=440ed518
DTITLE=Various Artist - You Heard It Here First!:  The Original Versi
DTITLE=ons of Famous Songs
DYEAR=2010
DGENRE=Rhythm and Blues
TTITLE0=Billy Joe Royal - Hush
TTITLE1=The Four Preps - Love of the Common People
TTITLE2=Johnny Kidd and The Pirates - Shakin' All Over
TTITLE3=Barry McGuire - California Dreamin'
TTITLE4=Pino Donaggio - Lo Che Non Vivo (Senza Te)
TTITLE5=The Dells - Higher and Higher
TTITLE6=James Brown - I Don't Care
TTITLE7=Bobby Parker - You Got What it Takes
TTITLE8=Tony Joe White - Old Man Willis
TTITLE9=Dan Penn - I'm Your Puppet
TTITLE10=Sir Mack Rice - Mustang Sally
TTITLE11=Solomon Linda's Original Evening Birds - Mbube
TTITLE12=James Ray - I Got My Mind Set on You, Parts 1 and 2
TTITLE13=The McCoys - Sorrow
TTITLE14=The Corporation - Candida
TTITLE15=The Four Voices - Sealed with a Kiss
TTITLE16=Fred Neil - Everybody's Talkin'
TTITLE17=The Outsiders - Bend Me Shape Me
TTITLE18=Hoyt Axton - Sing in the Sunshine
TTITLE19=The Great Society - Someone to Love
TTITLE20=Don Cherry - Then You Can Tell Me Goodbye
TTITLE21=The Greenbriar Boys - Different Drum
TTITLE22=Don and Dewey - Leavin' it Up to You
TTITLE23=Chuck Berry - Come On
EXTD=YEAR: 2010
EXTT0=
EXTT1=
EXTT2=
EXTT3=
EXTT4=
EXTT5=
EXTT6=
EXTT7=
EXTT8=
EXTT9=
EXTT10=
EXTT11=
EXTT12=
EXTT13=
EXTT14=
EXTT15=
EXTT16=
EXTT17=
EXTT18=
EXTT19=
EXTT20=
EXTT21=
EXTT22=
EXTT23=
PLAYORDER=
